<?xml version="1.0" encoding="UTF-8"?>
<svg version="1.1" xmlns="http://www.w3.org/2000/svg" width="87" height="271">
<path d="M0 0 C28.71 0 57.42 0 87 0 C87 89.43 87 178.86 87 271 C58.29 271 29.58 271 0 271 C0 181.57 0 92.14 0 0 Z " fill="#FBFBFB" transform="translate(0,0)"/>
<path d="M0 0 C2.475 0.495 2.475 0.495 5 1 C5 1.99 5 2.98 5 4 C7.64 4 10.28 4 13 4 C13.74609375 5.703125 13.74609375 5.703125 14 8 C12.34765625 10.359375 12.34765625 10.359375 10.0625 12.75 C9.31097656 13.54921875 8.55945312 14.3484375 7.78515625 15.171875 C7.19605469 15.77515625 6.60695312 16.3784375 6 17 C8.09761573 19.29476159 9.96817072 20.63735834 12.80078125 21.90234375 C13.53103516 22.23556641 14.26128906 22.56878906 15.01367188 22.91210938 C15.77228516 23.25048828 16.53089844 23.58886719 17.3125 23.9375 C22.52223315 26.27041761 27.38975666 28.60645045 32 32 C32 32.33 32 32.66 32 33 C23.53917062 33.54005294 16.92546819 30.90919579 9.9296875 26.2734375 C7.03633979 24.36406229 4.02057355 22.69907262 1 21 C1 21.66 1 22.32 1 23 C3.475 23.99 3.475 23.99 6 25 C5.505 26.485 5.505 26.485 5 28 C6.65 28.33 8.3 28.66 10 29 C10 29.66 10 30.32 10 31 C8.35 31.33 6.7 31.66 5 32 C5 32.66 5 33.32 5 34 C6.98 34 8.96 34 11 34 C11.33 34.99 11.66 35.98 12 37 C8.535 37.495 8.535 37.495 5 38 C5 39.32 5 40.64 5 42 C5.99 41.67 6.98 41.34 8 41 C9.66267874 40.85779721 11.3315173 40.77979433 13 40.75 C13.86625 40.72421875 14.7325 40.6984375 15.625 40.671875 C18.42903194 41.05927415 19.26286782 41.82858478 21 44 C19.05909174 45.94090826 15.52706098 45.39919435 12.9375 45.5625 C11.64714844 45.64628906 10.35679688 45.73007812 9.02734375 45.81640625 C8.02832031 45.87699219 7.02929688 45.93757813 6 46 C6 49.63 6 53.26 6 57 C12.06310158 58.72629975 17.71236944 59.39319795 24 59.625 C24.87011719 59.66367188 25.74023438 59.70234375 26.63671875 59.7421875 C28.75750486 59.83540887 30.87872185 59.91874136 33 60 C33 60.66 33 61.32 33 62 C20.82618773 67.41058323 11.0805628 64.4435381 -1.0078125 59.859375 C-7.98927139 57.8938807 -15.87450713 59.01406264 -23.03710938 59.25390625 C-24.25591797 59.27582031 -25.47472656 59.29773438 -26.73046875 59.3203125 C-28.39178833 59.37082764 -28.39178833 59.37082764 -30.08666992 59.42236328 C-33.64635498 58.90629397 -34.77178638 57.74340557 -37 55 C-33.27116893 53.90428426 -29.97156177 53.99782623 -26.12109375 54.16015625 C-23.69576058 54.15140845 -23.69576058 54.15140845 -21 52 C-20.67 51.01 -20.34 50.02 -20 49 C-20.66 49 -21.32 49 -22 49 C-23.99785435 44.8794254 -24.17835515 41.54805635 -24 37 C-24.721875 37.350625 -25.44375 37.70125 -26.1875 38.0625 C-29.3122705 39.10409017 -30.88161996 38.89096572 -34 38 C-34.495 36.515 -34.495 36.515 -35 35 C-23.62204177 29.60942758 -23.62204177 29.60942758 -18.375 30.25 C-15.08686775 30.49088881 -14.07064774 30.04750105 -11.2578125 28.15625 C-5.57847405 23.54098397 -5.57847405 23.54098397 -3 17 C-3.99 16.34 -4.98 15.68 -6 15 C-6.55429687 15.5053125 -7.10859375 16.010625 -7.6796875 16.53125 C-8.40414062 17.1809375 -9.12859375 17.830625 -9.875 18.5 C-10.59429687 19.1496875 -11.31359375 19.799375 -12.0546875 20.46875 C-14 22 -14 22 -16 22 C-15.34 20.68 -14.68 19.36 -14 18 C-13.34 18 -12.68 18 -12 18 C-11.7525 17.443125 -11.505 16.88625 -11.25 16.3125 C-9.77719736 13.58781512 -7.93745204 11.42181505 -6 9 C-3.95813904 6.02729066 -1.97303107 3.01873754 0 0 Z " fill="#0E0E0E" transform="translate(43,8)"/>
<path d="M0 0 C1.9375 0.3125 1.9375 0.3125 4 1 C5 4 5 4 4.22265625 6.04296875 C3.64837891 7.10451172 3.64837891 7.10451172 3.0625 8.1875 C2.49208984 9.26064453 2.49208984 9.26064453 1.91015625 10.35546875 C1.60980469 10.89816406 1.30945313 11.44085938 1 12 C3.475 12.99 3.475 12.99 6 14 C6 15.32 6 16.64 6 18 C6.84046875 17.83757812 7.6809375 17.67515625 8.546875 17.5078125 C12.16390267 16.97589667 15.59572837 16.86722495 19.25 16.875 C20.47203125 16.87242187 21.6940625 16.86984375 22.953125 16.8671875 C26 17 26 17 28 18 C28 18.66 28 19.32 28 20 C22.67132017 21.10941367 17.53718145 21.11548069 12.125 21.0625 C11.24585938 21.05798828 10.36671875 21.05347656 9.4609375 21.04882812 C7.30726197 21.03712337 5.15362183 21.01919069 3 21 C2.67 22.32 2.34 23.64 2 25 C1.34 25 0.68 25 0 25 C-0.33 25.99 -0.66 26.98 -1 28 C-1.66 28.66 -2.32 29.32 -3 30 C1.62 28.68 6.24 27.36 11 26 C10.34 25.01 9.68 24.02 9 23 C14.22440104 23.32652507 18.38035275 26.3893345 22 30 C22 30.99 22 31.98 22 33 C18.25948407 32.35508346 18.25948407 32.35508346 16.8125 30.375 C14.92882048 28.6192121 14.92882048 28.6192121 11.64453125 29.36328125 C10.37996094 29.67652344 9.11539063 29.98976562 7.8125 30.3125 C6.54019531 30.61800781 5.26789062 30.92351562 3.95703125 31.23828125 C2.98121094 31.48964844 2.00539062 31.74101562 1 32 C1 32.66 1 33.32 1 34 C1.99 34.33 2.98 34.66 4 35 C4 35.99 4 36.98 4 38 C6.97 38.33 9.94 38.66 13 39 C13 36.03 13 33.06 13 30 C14.32 30.66 15.64 31.32 17 32 C17 33.98 17 35.96 17 38 C18.04800781 37.96519531 19.09601562 37.93039063 20.17578125 37.89453125 C21.55467147 37.86639063 22.93357902 37.83909076 24.3125 37.8125 C25.00279297 37.78736328 25.69308594 37.76222656 26.40429688 37.73632812 C28.42578125 37.70703125 28.42578125 37.70703125 32 38 C32.99 38.99 33.98 39.98 35 41 C29.06 41.33 23.12 41.66 17 42 C16.67 43.98 16.34 45.96 16 48 C12.04 48.99 8.08 49.98 4 51 C5.79745998 53.24694892 5.79745998 53.24694892 8.27490234 53.10351562 C9.20254395 53.03841797 10.13018555 52.97332031 11.0859375 52.90625 C12.09914062 52.84566406 13.11234375 52.78507812 14.15625 52.72265625 C16.29430811 52.5747566 18.43232935 52.42632302 20.5703125 52.27734375 C21.58609375 52.21675781 22.601875 52.15617187 23.6484375 52.09375 C24.57833496 52.02865234 25.50823242 51.96355469 26.46630859 51.89648438 C29.17998653 52.00735347 30.69652172 52.60886389 33 54 C33 54.66 33 55.32 33 56 C31.92516357 56.03758423 31.92516357 56.03758423 30.82861328 56.07592773 C27.59388486 56.19169751 24.35946159 56.31450969 21.125 56.4375 C19.99707031 56.47681641 18.86914062 56.51613281 17.70703125 56.55664062 C16.63066406 56.59853516 15.55429687 56.64042969 14.4453125 56.68359375 C12.95281982 56.73858032 12.95281982 56.73858032 11.43017578 56.79467773 C8.99220499 56.84959532 8.99220499 56.84959532 7 58 C15.95975143 65.76857061 24.72225655 69.59262491 36 73 C36 73.66 36 74.32 36 75 C22.19605822 75.82823651 16.42648488 71.6887374 6 63 C5.67 68.28 5.34 73.56 5 79 C1 78 1 78 -1 75 C-0.6875 72.8125 -0.6875 72.8125 0 70 C0.37609733 67.33762682 0.6831803 64.67033747 1 62 C0.14277344 62.61488281 -0.71445312 63.22976562 -1.59765625 63.86328125 C-2.75236466 64.68002622 -3.90732622 65.49641337 -5.0625 66.3125 C-5.62388672 66.71662109 -6.18527344 67.12074219 -6.76367188 67.53710938 C-10.68743438 70.29495388 -14.46279117 72.40407901 -19 74 C-19.99 73.67 -20.98 73.34 -22 73 C-21.443125 72.63648438 -20.88625 72.27296875 -20.3125 71.8984375 C-10.99059905 66.58565757 -10.99059905 66.58565757 -4 59 C-4.61746094 59.144375 -5.23492187 59.28875 -5.87109375 59.4375 C-11.72140455 60.7197599 -17.01449037 61.19308096 -23 61 C-23.33 60.34 -23.66 59.68 -24 59 C-21.50276548 58.32114013 -19.00303859 57.65682573 -16.5 57 C-15.80390625 56.80921875 -15.1078125 56.6184375 -14.390625 56.421875 C-9.4587081 55.14322988 -5.09419909 54.81642526 0 55 C-0.33 53.68 -0.66 52.36 -1 51 C-6.94 51.495 -6.94 51.495 -13 52 C-15 49 -15 49 -15 45 C-15.845625 45.350625 -16.69125 45.70125 -17.5625 46.0625 C-21.99035424 47.27009661 -25.84987609 47.07506196 -30 45 C-30 44.34 -30 43.68 -30 43 C-25.05 42.34 -20.1 41.68 -15 41 C-15.33 38.69 -15.66 36.38 -16 34 C-15.42636719 33.7421875 -14.85273438 33.484375 -14.26171875 33.21875 C-11.79490707 31.8894836 -9.90831904 30.35595983 -7.8125 28.5 C-7.11769531 27.8915625 -6.42289063 27.283125 -5.70703125 26.65625 C-3.90980918 25.09504668 -3.90980918 25.09504668 -3 23 C-4.04800781 23.09539062 -5.09601562 23.19078125 -6.17578125 23.2890625 C-7.55464022 23.40162242 -8.93354929 23.51356964 -10.3125 23.625 C-11.34793945 23.72167969 -11.34793945 23.72167969 -12.40429688 23.8203125 C-16.2559972 24.11802847 -17.68854416 24.20763723 -21 22 C-21 21.34 -21 20.68 -21 20 C-10.11 19.01 -10.11 19.01 1 18 C0.34 16.35 -0.32 14.7 -1 13 C-3.54775306 12.10613836 -3.54775306 12.10613836 -6 12 C-5.38125 11.13375 -4.7625 10.2675 -4.125 9.375 C-2.15345216 6.24371814 -1.01033009 3.53615531 0 0 Z " fill="#0F0F0F" transform="translate(41,188)"/>
<path d="M0 0 C2.92393881 0.62655832 5.44829129 1.4161808 8 3 C8.495 4.485 8.495 4.485 9 6 C9.92232422 5.94779297 9.92232422 5.94779297 10.86328125 5.89453125 C11.67152344 5.86746094 12.47976562 5.84039062 13.3125 5.8125 C14.51326172 5.76029297 14.51326172 5.76029297 15.73828125 5.70703125 C18.47851584 6.06198392 19.29171079 6.89366282 21 9 C19.60840337 12.47899158 18.36748512 13.48052501 15 15 C15.89203125 14.97679688 16.7840625 14.95359375 17.703125 14.9296875 C18.87359375 14.91164063 20.0440625 14.89359375 21.25 14.875 C22.99023438 14.84019531 22.99023438 14.84019531 24.765625 14.8046875 C27.82786046 14.9896051 29.44202751 15.39176977 32 17 C32 18.32 32 19.64 32 21 C31.12601563 20.97643433 31.12601563 20.97643433 30.234375 20.95239258 C17.73891332 20.6613721 6.18518191 21.06717685 -6 24 C-5.814375 24.556875 -5.62875 25.11375 -5.4375 25.6875 C-4.92448835 28.399133 -5.3359276 30.34371039 -6 33 C-5.43603516 32.81824219 -4.87207031 32.63648438 -4.29101562 32.44921875 C-1.69765366 31.62087218 0.90096805 30.81037232 3.5 30 C4.386875 29.71382812 5.27375 29.42765625 6.1875 29.1328125 C12.59814079 27.15305578 18.69719047 25.34859524 25 28.5 C25.66 28.995 26.32 29.49 27 30 C26.34314798 33.95570883 25.15607112 37.42259166 23.625 41.125 C23.20476563 42.15882812 22.78453125 43.19265625 22.3515625 44.2578125 C21.10163204 46.79379859 20.28505414 48.3637884 18 50 C14.88071117 50 12.86968863 49.97580961 10 49 C7.5 46.4375 7.5 46.4375 6 44 C8.97 44 11.94 44 15 44 C16.65 40.04 18.3 36.08 20 32 C17.43742878 32.47878828 14.87494141 32.95801793 12.3125 33.4375 C11.59126953 33.57220703 10.87003906 33.70691406 10.12695312 33.84570312 C6.41311202 34.54098845 2.70283746 35.24774702 -1 36 C-0.67 36.99 -0.34 37.98 0 39 C-0.00721263 42.40436035 -0.07565315 45.79422047 -0.21484375 49.1953125 C-0.3240388 53.24544072 -0.3240388 53.24544072 1.15625 56.92578125 C9.83214138 61.98059085 23.23001602 60.21061043 33 60 C33.99 56.7 34.98 53.4 36 50 C39.40858586 53.40858586 39.93008394 58.32201465 40.125 63 C40.08375 63.66 40.0425 64.32 40 65 C29.00584541 67.24187492 13.62460434 67.89635774 3 64 C-0.64760797 61.18830219 -2.9646365 58.11019388 -5 54 C-5.31337114 51.19352568 -5.50948504 48.55726833 -5.5625 45.75 C-5.624522 43.14048168 -5.76512657 40.60441931 -6 38 C-6.66 37.67 -7.32 37.34 -8 37 C-8.17015625 37.72703125 -8.3403125 38.4540625 -8.515625 39.203125 C-13.89825361 61.53530752 -13.89825361 61.53530752 -20 66 C-22.8125 67.3125 -22.8125 67.3125 -25 68 C-23.95182926 65.89399796 -22.8939861 63.79427005 -21.81640625 61.703125 C-17.74682978 53.74146138 -14.93797576 46.59898401 -13.47265625 37.7578125 C-12.89688315 34.39834301 -12.14696507 31.09439757 -11.3671875 27.77734375 C-10.9325597 25.97603969 -10.9325597 25.97603969 -11 24 C-11.66 23.34 -12.32 22.68 -13 22 C-8.66203188 19.92960613 -4.57266459 18.61802464 0.125 17.5625 C4.62686021 16.49197004 7.75131311 15.47273426 11 12 C11.33 11.34 11.66 10.68 12 10 C5.54069298 9.48325544 2.35567071 10.07250815 -3 14 C-6.375 14.75 -6.375 14.75 -9 15 C-8.39689282 11.331098 -6.82898926 9.22896634 -4.5 6.375 C-2.00268157 3.34636516 -2.00268157 3.34636516 0 0 Z " fill="#0E0E0E" transform="translate(34,69)"/>
<path d="M0 0 C0 0.99 0 1.98 0 3 C-6.27 3.66 -12.54 4.32 -19 5 C-19.33 6.65 -19.66 8.3 -20 10 C-21.0625 12.3125 -21.0625 12.3125 -22 14 C-21.04738281 13.95359375 -20.09476563 13.9071875 -19.11328125 13.859375 C-17.23189453 13.80523437 -17.23189453 13.80523437 -15.3125 13.75 C-14.07113281 13.70359375 -12.82976563 13.6571875 -11.55078125 13.609375 C-7.31961953 14.07484934 -5.74368244 14.74899514 -3 18 C-2.55888259 20.73924657 -2.4265342 22.78581469 -2.5625 25.5 C-2.57990234 26.20253906 -2.59730469 26.90507812 -2.61523438 27.62890625 C-2.83522185 33.84496253 -3.70956533 39.91652229 -5 46 C-6.32 46 -7.64 46 -9 46 C-9 45.34 -9 44.68 -9 44 C-15.27 44.33 -21.54 44.66 -28 45 C-28 44.34 -28 43.68 -28 43 C-28.99 43 -29.98 43 -31 43 C-31 41.02 -31 39.04 -31 37 C-30.67 37 -30.34 37 -30 37 C-30 38.65 -30 40.3 -30 42 C-20.595 41.01 -20.595 41.01 -11 40 C-11 38.35 -11 36.7 -11 35 C-13.64 35 -16.28 35 -19 35 C-18.67 34.34 -18.34 33.68 -18 33 C-15.36 33 -12.72 33 -10 33 C-10 30.69 -10 28.38 -10 26 C-16.435 26.495 -16.435 26.495 -23 27 C-19.72220127 23.72220127 -19.1639187 23.59505966 -14.8125 23.3125 C-13.91144531 23.24675781 -13.01039062 23.18101562 -12.08203125 23.11328125 C-11.39496094 23.07589844 -10.70789063 23.03851563 -10 23 C-10 21.35 -10 19.7 -10 18 C-17.53216715 18.44238385 -24.6802723 19.13905228 -32 21 C-31.48032323 18.62713627 -31.1452534 17.18486796 -29.625 15.25 C-27.31939436 12.05762296 -26.2996065 8.71316142 -25 5 C-26.22976562 5.14308594 -26.22976562 5.14308594 -27.484375 5.2890625 C-29.10085937 5.45535156 -29.10085937 5.45535156 -30.75 5.625 C-31.81734375 5.74101562 -32.8846875 5.85703125 -33.984375 5.9765625 C-37.03792399 6.00029475 -38.46162421 5.61420985 -41 4 C-41 3.34 -41 2.68 -41 2 C-37.03539271 1.56661721 -33.07014884 1.13964764 -29.10424805 0.71826172 C-27.10234813 0.50425974 -25.10097132 0.28538227 -23.09960938 0.06640625 C-5.41388325 -1.80462775 -5.41388325 -1.80462775 0 0 Z " fill="#0D0D0D" transform="translate(76,140)"/>
<path d="M0 0 C0 1.65 0 3.3 0 5 C-3.96 5.99 -7.92 6.98 -12 8 C-8.04 8 -4.08 8 0 8 C0 10.31 0 12.62 0 15 C-2.64 15.33 -5.28 15.66 -8 16 C-5.69 16.33 -3.38 16.66 -1 17 C-1 18.65 -1 20.3 -1 22 C-7.45287812 23.32853373 -13.41720302 24.12190365 -20 24 C-20.33 24.33 -20.66 24.66 -21 25 C-20.01 25 -19.02 25 -18 25 C-18 25.66 -18 26.32 -18 27 C-20.375 26.6875 -20.375 26.6875 -23 26 C-25.15749784 22.76375324 -25.28360488 21.65605934 -25.4140625 17.89453125 C-25.45273437 16.91162109 -25.49140625 15.92871094 -25.53125 14.91601562 C-25.5621875 13.89185547 -25.593125 12.86769531 -25.625 11.8125 C-25.66367187 10.77673828 -25.70234375 9.74097656 -25.7421875 8.67382812 C-25.83648296 6.11606378 -25.92208202 3.55830713 -26 1 C-25.2471875 1.18433594 -24.494375 1.36867187 -23.71875 1.55859375 C-20.59357738 2.06598528 -18.4676763 1.33977648 -15.46875 0.48046875 C-10.38802116 -0.50834398 -5.15354205 -0.14140817 0 0 Z " fill="#0E0E0E" transform="translate(66,158)"/>
<path d="M0 0 C0.99 0.33 1.98 0.66 3 1 C3 2.65 3 4.3 3 6 C1.02 6.66 -0.96 7.32 -3 8 C-0.03 8.495 -0.03 8.495 3 9 C2.8125 10.875 2.8125 10.875 2 13 C-0.5625 14.25 -0.5625 14.25 -3 15 C-0.03 15.495 -0.03 15.495 3 16 C3 17.32 3 18.64 3 20 C-3.435 21.98 -3.435 21.98 -10 24 C-6.04 23.67 -2.08 23.34 2 23 C2 25.97 2 28.94 2 32 C-3.28 31.67 -8.56 31.34 -14 31 C-14.66 29.02 -15.32 27.04 -16 25 C-16.66 24.01 -17.32 23.02 -18 22 C-18.33038519 18.43183994 -18.27137631 15.75985367 -17.0625 12.375 C-14.49186 9.41486909 -11.74906152 8.04200052 -8.28515625 6.2734375 C-6.11765935 5.06556743 -4.45554798 3.78579791 -2.625 2.125 C-1.75875 1.42375 -0.8925 0.7225 0 0 Z " fill="#F6F6F6" transform="translate(41,32)"/>
<path d="M0 0 C0.66 0.33 1.32 0.66 2 1 C2 1.66 2 2.32 2 3 C0.576875 3.3403125 0.576875 3.3403125 -0.875 3.6875 C-4.06755054 4.68994941 -4.06755054 4.68994941 -5.375 7.0625 C-6.22727824 11.06820774 -6.15993601 14.92163181 -6 19 C-6.99 19.33 -7.98 19.66 -9 20 C-10.99785435 15.8794254 -11.17835515 12.54805635 -11 8 C-11.721875 8.350625 -12.44375 8.70125 -13.1875 9.0625 C-16.3122705 10.10409017 -17.88161996 9.89096572 -21 9 C-21.33 8.01 -21.66 7.02 -22 6 C-14.68188968 2.53287497 -9.11883368 0.46761746 -1 1 C-0.67 0.67 -0.34 0.34 0 0 Z " fill="#111111" transform="translate(30,37)"/>
<path d="M0 0 C0 2.31 0 4.62 0 7 C-6.6 7.66 -13.2 8.32 -20 9 C-20 6.69 -20 4.38 -20 2 C-6.3667426 -0.29612756 -6.3667426 -0.29612756 0 0 Z " fill="#EAEAEA" transform="translate(66,166)"/>
<path d="M0 0 C2.41229459 0.93379145 3.71597433 1.47546872 4.96875 3.7890625 C5.04937479 9.49326642 -1.24905517 15.12999092 -4.953125 19.0859375 C-6.75 20.75 -6.75 20.75 -10 23 C-12.203125 22.640625 -12.203125 22.640625 -14 22 C-13.49210938 21.50113281 -12.98421875 21.00226563 -12.4609375 20.48828125 C-6.54970091 14.32244084 -3.21221772 7.87236691 0 0 Z " fill="#121212" transform="translate(28,178)"/>
<path d="M0 0 C3.78611227 0.54087318 5.55400767 2.11722332 8 5 C8 5.66 8 6.32 8 7 C7.34 7 6.68 7 6 7 C5.59007812 7.85271484 5.59007812 7.85271484 5.171875 8.72265625 C1.79282997 15.28926708 -2.04606842 20.60543145 -8 25 C-8.66 24.67 -9.32 24.34 -10 24 C-9.41992188 23.34257812 -9.41992188 23.34257812 -8.828125 22.671875 C-3.46138051 16.13613667 0 8.55253259 0 0 Z " fill="#161616" transform="translate(24,137)"/>
<path d="M0 0 C0 1.65 0 3.3 0 5 C-2.58252893 5.50449402 -5.16588703 6.00374301 -7.75 6.5 C-8.84441406 6.71462891 -8.84441406 6.71462891 -9.9609375 6.93359375 C-13.39343532 7.58888879 -16.49169491 8 -20 8 C-20.33 6.02 -20.66 4.04 -21 2 C-13.94887561 -0.21211746 -7.35342179 -0.20177072 0 0 Z " fill="#F0F0F0" transform="translate(66,158)"/>
<path d="M0 0 C3.875 0.875 3.875 0.875 5 2 C5.04063832 3.66617115 5.042721 5.33388095 5 7 C7.64 7 10.28 7 13 7 C11.30678112 9.0768252 10.36002636 9.92226921 7.70336914 10.49584961 C4.82317575 10.66477668 1.94536739 10.82115109 -0.9375 10.9375 C-1.93974609 11.00517578 -2.94199219 11.07285156 -3.97460938 11.14257812 C-11.35000387 11.4820726 -11.35000387 11.4820726 -14.69140625 9.00390625 C-15.12324219 8.34261719 -15.55507812 7.68132813 -16 7 C-12.27116893 5.90428426 -8.97156177 5.99782623 -5.12109375 6.16015625 C-2.69576058 6.15140845 -2.69576058 6.15140845 0 4 C0 2.68 0 1.36 0 0 Z " fill="#1F1F1F" transform="translate(22,56)"/>
<path d="M0 0 C3.875 1.875 3.875 1.875 5 3 C5.3125 5.3125 5.3125 5.3125 5 8 C3.375 9.8125 3.375 9.8125 1 12 C0.00434418 13.34208949 -0.97351833 14.69748203 -1.9375 16.0625 C-4.27487289 19.23422625 -6.27407782 21.44753242 -10 23 C-10.66 22.67 -11.32 22.34 -12 22 C-11.63648438 21.58492187 -11.27296875 21.16984375 -10.8984375 20.7421875 C-5.76144597 14.44607993 -2.96267847 7.48023783 0 0 Z " fill="#121212" transform="translate(27,159)"/>
<path d="M0 0 C1.671875 1.1796875 1.671875 1.1796875 2.671875 2.1796875 C2.71251332 3.84585865 2.714596 5.51356845 2.671875 7.1796875 C2.40375 6.5609375 2.135625 5.9421875 1.859375 5.3046875 C0.71630652 2.8801642 0.71630652 2.8801642 -2.328125 1.1796875 C-2.328125 4.1496875 -2.328125 7.1196875 -2.328125 10.1796875 C-5.628125 10.1796875 -8.928125 10.1796875 -12.328125 10.1796875 C-12.328125 8.8596875 -12.328125 7.5396875 -12.328125 6.1796875 C-12.988125 5.8496875 -13.648125 5.5196875 -14.328125 5.1796875 C-14.328125 4.5196875 -14.328125 3.8596875 -14.328125 3.1796875 C-12.41833867 2.4530078 -10.49993985 1.74893162 -8.578125 1.0546875 C-7.51078125 0.66023437 -6.4434375 0.26578125 -5.34375 -0.140625 C-2.328125 -0.8203125 -2.328125 -0.8203125 0 0 Z " fill="#EBEBEB" transform="translate(56.328125,216.8203125)"/>
<path d="M0 0 C0 1.65 0 3.3 0 5 C-6.43028541 6.32388229 -12.4294834 7.24794402 -19 7 C-19 5.35 -19 3.7 -19 2 C-12.6221448 0.82706111 -6.49678438 -0.29530838 0 0 Z " fill="#F0F0F0" transform="translate(65,175)"/>
<path d="M0 0 C3.63 0 7.26 0 11 0 C9.68 0.99 8.36 1.98 7 3 C7.66 3.66 8.32 4.32 9 5 C3.38798394 7.24480642 -2.07136283 8.83348574 -8 10 C-3.25 4.125 -3.25 4.125 -1 3 C-0.67 2.01 -0.34 1.02 0 0 Z " fill="#E9E9E9" transform="translate(44,209)"/>
<path d="M0 0 C5.22440104 0.32652507 9.38035275 3.3893345 13 7 C13 7.99 13 8.98 13 10 C9.29787234 9.36170213 9.29787234 9.36170213 7.6875 7.40625 C6.04735539 5.71359553 6.04735539 5.71359553 3.51953125 6.14453125 C2.62621094 6.36496094 1.73289062 6.58539063 0.8125 6.8125 C-0.08855469 7.02519531 -0.98960938 7.23789063 -1.91796875 7.45703125 C-2.60503906 7.63621094 -3.29210938 7.81539062 -4 8 C-4.33 7.01 -4.66 6.02 -5 5 C-2.69 4.34 -0.38 3.68 2 3 C1.34 2.01 0.68 1.02 0 0 Z " fill="#1F1F1F" transform="translate(50,211)"/>
<path d="M0 0 C6.53795882 1.67250109 10.35026859 5.42935732 14 11 C14 11.66 14 12.32 14 13 C9.15483092 12.57830678 7.30981069 10.67153905 4.1875 7.0625 C3.39730469 6.16660156 2.60710937 5.27070313 1.79296875 4.34765625 C0 2 0 2 0 0 Z " fill="#0F0F0F" transform="translate(62,189)"/>
<path d="M0 0 C1.9375 0.3125 1.9375 0.3125 4 1 C5 4 5 4 4.29296875 6.0078125 C3.92816406 6.70648438 3.56335937 7.40515625 3.1875 8.125 C2.83042969 8.82882813 2.47335938 9.53265625 2.10546875 10.2578125 C1 12 1 12 -1 13 C-2.67654729 12.72057545 -4.34608154 12.39171753 -6 12 C-5.38125 11.13375 -4.7625 10.2675 -4.125 9.375 C-2.15345216 6.24371814 -1.01033009 3.53615531 0 0 Z " fill="#131313" transform="translate(41,188)"/>
<path d="M0 0 C0.33 1.98 0.66 3.96 1 6 C-2.63 6 -6.26 6 -10 6 C-10.33 4.68 -10.66 3.36 -11 2 C-7.17010894 0.19769832 -4.21878192 -0.19622241 0 0 Z " fill="#F3F3F3" transform="translate(39,222)"/>
<path d="M0 0 C0 1.65 0 3.3 0 5 C-3.3 5.33 -6.6 5.66 -10 6 C-10 4.35 -10 2.7 -10 1 C-6.59437148 0.22157062 -3.49234244 -0.09978121 0 0 Z " fill="#EDEDED" transform="translate(40,231)"/>
<path d="M0 0 C4.37316802 1.19268219 7.20693225 2.34752679 10 6 C10 7.32 10 8.64 10 10 C7.8125 9.9375 7.8125 9.9375 5 9 C2.61372642 6.43314355 0 3.61081552 0 0 Z " fill="#0E0E0E" transform="translate(12,17)"/>
<path d="M0 0 C3.125 0.375 3.125 0.375 6 1 C4.68 3.31 3.36 5.62 2 8 C0.02 7.34 -1.96 6.68 -4 6 C-2.84826645 3.53199953 -1.95216435 1.95216435 0 0 Z " fill="#E4E4E4" transform="translate(43,16)"/>
<path d="M0 0 C0.66 0.33 1.32 0.66 2 1 C-0.09225891 6.23064727 -3.84180651 7.80232645 -8.625 10.1796875 C-11 11 -11 11 -14 10 C-13.40832031 9.61328125 -12.81664063 9.2265625 -12.20703125 8.828125 C-7.98586699 6.04615051 -3.87941928 3.25370649 0 0 Z " fill="#1E1E1E" transform="translate(33,251)"/>
<path d="M0 0 C2.31 0 4.62 0 7 0 C7 1.32 7 2.64 7 4 C4.36 4.33 1.72 4.66 -1 5 C-0.67 3.35 -0.34 1.7 0 0 Z " fill="#EAEAEA" transform="translate(46,230)"/>
<path d="M0 0 C0.99 0.33 1.98 0.66 3 1 C3 2.65 3 4.3 3 6 C0.36 6.66 -2.28 7.32 -5 8 C-3.8141763 4.62496331 -2.72426311 2.35277269 0 0 Z " fill="#EDEDED" transform="translate(41,32)"/>
<path d="M0 0 C0 0.66 0 1.32 0 2 C-5.94 2.495 -5.94 2.495 -12 3 C-8.13075877 -0.86924123 -5.22196724 -1.74065575 0 0 Z " fill="#363636" transform="translate(58,174)"/>
<path d="M0 0 C-1.0625 1.5 -1.0625 1.5 -3 3 C-6.6875 3.1875 -6.6875 3.1875 -10 3 C-9 1 -9 1 -6.6875 -0.1875 C-3.88010429 -1.03624754 -2.698065 -0.99928333 0 0 Z " fill="#1F1F1F" transform="translate(40,54)"/>
<path d="M0 0 C0.33 0.66 0.66 1.32 1 2 C-2.375 2.125 -2.375 2.125 -6 2 C-6.66 1.34 -7.32 0.68 -8 0 C-4.97878489 -0.97110486 -2.99536737 -1.13617383 0 0 Z " fill="#303030" transform="translate(54,166)"/>
</svg>
