<?xml version="1.0" encoding="UTF-8"?>
<svg version="1.1" xmlns="http://www.w3.org/2000/svg" width="300" height="300">
<path d="M0 0 C99 0 198 0 300 0 C300 99 300 198 300 300 C201 300 102 300 0 300 C0 201 0 102 0 0 Z " fill="#FEFEFE" transform="translate(0,0)"/>
<path d="M0 0 C1.62463842 -0.05395478 3.24978541 -0.09277195 4.875 -0.125 C6.23238281 -0.15980469 6.23238281 -0.15980469 7.6171875 -0.1953125 C10 0 10 0 12 2 C12.125 5.625 12.125 5.625 12 9 C13.08667969 8.80083984 13.08667969 8.80083984 14.1953125 8.59765625 C16.18773755 8.23370661 18.18128467 7.87585815 20.17578125 7.5234375 C22.23420892 7.14193085 24.27928644 6.68621276 26.3125 6.1875 C29.90408243 5.93692448 31.95681933 7.18858294 35 9 C35 9.99 35 10.98 35 12 C30.38 12.33 25.76 12.66 21 13 C21.94875 13.7425 22.8975 14.485 23.875 15.25 C26.32532401 17.27845219 27.87325363 18.9577848 29 22 C28.34 22.66 27.68 23.32 27 24 C27.495 24.99 27.495 24.99 28 26 C30.48692027 26.39306011 30.48692027 26.39306011 33.375 26.5 C37.25229715 26.70460671 38.69213984 26.79475989 42 29 C42 29.99 42 30.98 42 32 C37.38 32.33 32.76 32.66 28 33 C27.34 35.31 26.68 37.62 26 40 C21.38 40 16.76 40 12 40 C12.33 40.66 12.66 41.32 13 42 C14.15757812 41.97679687 15.31515625 41.95359375 16.5078125 41.9296875 C18.04686851 41.91091852 19.58593155 41.89271954 21.125 41.875 C21.88554687 41.85824219 22.64609375 41.84148437 23.4296875 41.82421875 C28.03270731 41.78453754 31.66464004 42.24092423 36 44 C36 44.99 36 45.98 36 47 C29.73 47 23.46 47 17 47 C23.20499564 50.5344572 23.20499564 50.5344572 29.6875 53.5 C33.48554427 55.2198691 35.91991966 57.2204153 39 60 C38.67 61.32 38.34 62.64 38 64 C33.34192315 64.70017021 29.55559607 64.98817617 25.47265625 62.39453125 C21.55482219 58.91997958 18.16351649 55.17584176 15 51 C14.01 50.505 14.01 50.505 13 50 C13.02320313 51.04800781 13.04640625 52.09601563 13.0703125 53.17578125 C13.08907303 54.55468037 13.10727293 55.9335872 13.125 57.3125 C13.14175781 58.00279297 13.15851563 58.69308594 13.17578125 59.40429688 C13.21217794 63.17135396 13.14378864 64.78431704 11 68 C6.76001646 68.39259107 3.63266059 68.32490278 0 66 C0 65.34 0 64.68 0 64 C-4.38445283 62.0910499 -4.38445283 62.0910499 -9 61 C-9.639375 61.33 -10.27875 61.66 -10.9375 62 C-13.64021335 63.31040647 -15.17002588 62.78610392 -18 62 C-15.9585653 59.84925153 -13.90083747 58.1484144 -11.42578125 56.51953125 C-10.75869141 56.07802734 -10.09160156 55.63652344 -9.40429688 55.18164062 C-8.71400391 54.72982422 -8.02371094 54.27800781 -7.3125 53.8125 C-6.2596582 53.11737305 -6.2596582 53.11737305 -5.18554688 52.40820312 C-3.45910505 51.26898641 -1.72982761 50.13406902 0 49 C-1.12148438 49.05220703 -1.12148438 49.05220703 -2.265625 49.10546875 C-3.25046875 49.13253906 -4.2353125 49.15960938 -5.25 49.1875 C-6.22453125 49.22230469 -7.1990625 49.25710937 -8.203125 49.29296875 C-11.39706651 48.95840784 -12.72880304 48.23334367 -15 46 C-15 45.34 -15 44.68 -15 44 C-7.74 44 -0.48 44 7 44 C7 43.01 7 42.02 7 41 C6.15695312 41.09539062 5.31390625 41.19078125 4.4453125 41.2890625 C3.34960938 41.39992187 2.25390625 41.51078125 1.125 41.625 C-0.51082031 41.79902344 -0.51082031 41.79902344 -2.1796875 41.9765625 C-3.57574219 41.98816406 -3.57574219 41.98816406 -5 42 C-7.5654594 39.4345406 -7.54046087 37.52313332 -8 34 C-8.59167969 34.144375 -9.18335938 34.28875 -9.79296875 34.4375 C-18.92275704 36.5821811 -18.92275704 36.5821811 -22 36 C-24.25583856 34.49970546 -26.02103361 32.88692144 -28 31 C-28 30.67 -28 30.34 -28 30 C-22.06 29.67 -16.12 29.34 -10 29 C-10 28.01 -10 27.02 -10 26 C-5.125 26.875 -5.125 26.875 -4 28 C-2.15108054 28.23363881 -0.29511969 28.41303635 1.5625 28.5625 C2.57441406 28.64628906 3.58632813 28.73007813 4.62890625 28.81640625 C5.41136719 28.87699219 6.19382812 28.93757813 7 29 C6.34 27.02 5.68 25.04 5 23 C7.375 22.875 7.375 22.875 10 23 C12 25 12 25 12 28 C15.3 28 18.6 28 22 28 C21.34 27.01 20.68 26.02 20 25 C20 24.01 20 23.02 20 22 C10.72755227 21.66213753 2.85912168 21.90575376 -6 25 C-7.68762851 23.3545622 -9.3540349 21.68711423 -11 20 C-11 19.67 -11 19.34 -11 19 C-9.88625 18.731875 -8.7725 18.46375 -7.625 18.1875 C-3.78159049 17.34190981 -3.78159049 17.34190981 -2 14 C-3.5778125 14.4640625 -3.5778125 14.4640625 -5.1875 14.9375 C-6.445625 15.288125 -7.70375 15.63875 -9 16 C-10.299375 16.4640625 -10.299375 16.4640625 -11.625 16.9375 C-14 17 -14 17 -16.8125 14.6875 C-19 12 -19 12 -19 10 C-10.42 9.67 -1.84 9.34 7 9 C7 8.01 7 7.02 7 6 C6.21625 5.7525 5.4325 5.505 4.625 5.25 C1.6083499 3.81349995 1.28434435 2.95279169 0 0 Z " fill="#0B0B0B" transform="translate(258,122)"/>
<path d="M0 0 C0 0.33 0 0.66 0 1 C-5.23718365 2.19479475 -10.47159483 2.40212401 -15.8203125 2.71875 C-19.02028093 2.8781985 -19.02028093 2.8781985 -22 4 C-22.67156616 5.93618425 -22.67156616 5.93618425 -23 8 C-23.33 8.66 -23.66 9.32 -24 10 C-22.9378125 9.86980469 -21.875625 9.73960937 -20.78125 9.60546875 C-7.91691368 8.26644698 -7.91691368 8.26644698 -3 11.4375 C-2.01 12.283125 -1.02 13.12875 0 14 C-0.33 14.66 -0.66 15.32 -1 16 C-2.32 16.33 -3.64 16.66 -5 17 C-5 25.91 -5 34.82 -5 44 C-6.98 44 -8.96 44 -11 44 C-9.783125 44.45375 -8.56625 44.9075 -7.3125 45.375 C-1.88109673 48.02799449 -0.06725189 52.54364766 2 58 C2 58.33 2 58.66 2 59 C-2.01742893 58.76368065 -4.38504801 58.49496136 -7.5625 55.9375 C-10.06819339 52.91781822 -12.45375774 49.84175485 -14.765625 46.671875 C-16.38231812 44.32616678 -16.38231812 44.32616678 -19.06640625 43.68359375 C-19.89011719 43.60238281 -20.71382812 43.52117187 -21.5625 43.4375 C-22.38878906 43.35371094 -23.21507812 43.26992187 -24.06640625 43.18359375 C-25.02353516 43.09271484 -25.02353516 43.09271484 -26 43 C-25.77957031 43.57621094 -25.55914062 44.15242188 -25.33203125 44.74609375 C-25 47 -25 47 -26.07421875 49.03515625 C-26.60660156 49.70417969 -27.13898438 50.37320313 -27.6875 51.0625 C-28.20699219 51.73410156 -28.72648438 52.40570313 -29.26171875 53.09765625 C-31.05535279 55.06057709 -32.74771916 56.58504822 -35 58 C-37.75 57.6875 -37.75 57.6875 -40 57 C-38.86449129 53.59347386 -37.50476128 52.50476128 -35 50 C-33.95650161 48.36021682 -32.94392019 46.69905634 -32 45 C-34.31 44.67 -36.62 44.34 -39 44 C-39 43.01 -39 42.02 -39 41 C-36.525 40.505 -36.525 40.505 -34 40 C-34.66 38.35 -35.32 36.7 -36 35 C-35.505 34.505 -35.505 34.505 -35 34 C-34.90030159 32.25234548 -34.87031955 30.5004897 -34.875 28.75 C-34.87113281 27.31914062 -34.87113281 27.31914062 -34.8671875 25.859375 C-34.99605437 23.08494708 -35.20143622 20.66187926 -36 18 C-36.99 17.34 -37.98 16.68 -39 16 C-39 15.34 -39 14.68 -39 14 C-37.68 14 -36.36 14 -35 14 C-35 13.34 -35 12.68 -35 12 C-34.38125 11.79375 -33.7625 11.5875 -33.125 11.375 C-30.15346355 9.45224112 -29.86975341 7.33405473 -29 4 C-29.721875 4.103125 -30.44375 4.20625 -31.1875 4.3125 C-35.1573703 3.8714033 -36.50403068 1.99516318 -39 -1 C-39 -1.66 -39 -2.32 -39 -3 C-38.4534375 -2.83886719 -37.906875 -2.67773438 -37.34375 -2.51171875 C-29.57259596 -0.81501678 -21.46468379 -2.04256664 -13.7890625 -3.66015625 C-8.39365182 -4.31758024 -4.40700466 -3.11082682 0 0 Z " fill="#0D0D0D" transform="translate(220,132)"/>
<path d="M0 0 C1.47968324 0.14049518 2.95874516 0.28754826 4.4375 0.4375 C5.67306641 0.55931641 5.67306641 0.55931641 6.93359375 0.68359375 C9 1 9 1 10 2 C11.41667169 2.02048905 12.83420627 1.99141268 14.25 1.9375 C17.96429539 1.88418476 20.64186566 2.26676937 24 4 C23.8125 5.8125 23.8125 5.8125 23 8 C21.36935236 9.05771739 19.69719127 10.05273046 18 11 C15.70710528 12.95809523 15.70710528 12.95809523 14 15 C14 15.66 14 16.32 14 17 C14.72445312 17.32613281 15.44890625 17.65226562 16.1953125 17.98828125 C18.18859565 18.88924523 20.17939954 19.79571006 22.16796875 20.70703125 C24.24916113 21.65720322 26.34060923 22.58499312 28.4375 23.5 C31.48874154 25.28609261 33.16053591 26.98327888 35 30 C34.75 32.3125 34.75 32.3125 34 34 C27.54060088 34.67285407 24.07947786 32.91659373 19 29 C15.92617123 26.40974865 12.93910929 23.74180797 10 21 C9.34 21.99 8.68 22.98 8 24 C8.66 24 9.32 24 10 24 C10.33 25.32 10.66 26.64 11 28 C11.969375 28.12375 12.93875 28.2475 13.9375 28.375 C15.4534375 28.684375 15.4534375 28.684375 17 29 C17.33 29.66 17.66 30.32 18 31 C16.02 31 14.04 31 12 31 C12 31.99 12 32.98 12 34 C12.78375 34.144375 13.5675 34.28875 14.375 34.4375 C17 35 17 35 19 36 C19 36.66 19 37.32 19 38 C16.69 38 14.38 38 12 38 C12 38.99 12 39.98 12 41 C13.546875 40.6596875 13.546875 40.6596875 15.125 40.3125 C19.4837817 39.96098535 21.32730775 40.76055351 25 43 C25 43.33 25 43.66 25 44 C18.565 44.495 18.565 44.495 12 45 C11.34 47.31 10.68 49.62 10 52 C9.34 52 8.68 52 8 52 C7.67 50.02 7.34 48.04 7 46 C5.741875 46.061875 4.48375 46.12375 3.1875 46.1875 C-0.72231986 46.20826011 -0.72231986 46.20826011 -3 44.5 C-3.33 44.005 -3.66 43.51 -4 43 C-2.33657163 41.33657163 -0.2174291 41.63951903 2.0625 41.4375 C2.98160156 41.35371094 3.90070312 41.26992187 4.84765625 41.18359375 C5.55792969 41.12300781 6.26820312 41.06242187 7 41 C7 40.34 7 39.68 7 39 C4.69 39 2.38 39 0 39 C-0.495 37.515 -0.495 37.515 -1 36 C1.64 35.67 4.28 35.34 7 35 C7 34.34 7 33.68 7 33 C5.88625 33.020625 4.7725 33.04125 3.625 33.0625 C0 33 0 33 -2 32 C-2.9075 32.680625 -3.815 33.36125 -4.75 34.0625 C-8 36 -8 36 -10.375 35.75 C-10.91125 35.5025 -11.4475 35.255 -12 35 C-10.5969473 31.72143808 -8.98851532 29.8858673 -6.25 27.625 C-5.54488281 27.02300781 -4.83976562 26.42101562 -4.11328125 25.80078125 C-3.06720703 24.90939453 -3.06720703 24.90939453 -2 24 C0.21932597 22.07353354 2.06161715 20.2365956 4 18 C3.7250505 15.85115742 3.7250505 15.85115742 3 14 C1.68 14 0.36 14 -1 14 C-1.9590625 15.0209375 -1.9590625 15.0209375 -2.9375 16.0625 C-3.618125 16.701875 -4.29875 17.34125 -5 18 C-7.75 17.75 -7.75 17.75 -10 17 C-8.19821968 12.67572724 -5.29228082 10.60961488 -1.6796875 7.78125 C0.45737409 5.92302171 0.45737409 5.92302171 0 2 C0 1.34 0 0.68 0 0 Z " fill="#0D0D0D" transform="translate(36,125)"/>
<path d="M0 0 C1.45792884 -0.05399736 2.91642712 -0.09279177 4.375 -0.125 C5.18710938 -0.14820312 5.99921875 -0.17140625 6.8359375 -0.1953125 C9 0 9 0 11 2 C11 2.99 11 3.98 11 5 C11.90492187 4.96519531 11.90492187 4.96519531 12.828125 4.9296875 C14.02695313 4.90261719 14.02695313 4.90261719 15.25 4.875 C16.03890625 4.85179688 16.8278125 4.82859375 17.640625 4.8046875 C20.20731941 5.0171622 21.7916067 5.71345895 24 7 C24 7.99 24 8.98 24 10 C23.278125 10.165 22.55625 10.33 21.8125 10.5 C18.73258724 12.14262014 18.06462287 13.16870106 16.32421875 16.09375 C15.66619263 17.18719727 15.66619263 17.18719727 14.99487305 18.30273438 C14.66656494 18.86283203 14.33825684 19.42292969 14 20 C15.31355469 19.89300781 16.62710938 19.78601563 17.98046875 19.67578125 C19.71608502 19.55381903 21.45176587 19.43277333 23.1875 19.3125 C24.05181641 19.23966797 24.91613281 19.16683594 25.80664062 19.09179688 C30.70016646 18.77306148 34.09100884 18.5927841 38 22 C38 22.66 38 23.32 38 24 C36.48031616 24.03758423 36.48031616 24.03758423 34.92993164 24.07592773 C31.13343921 24.17084645 27.33709423 24.27085287 23.54077148 24.37231445 C21.90473913 24.41534673 20.26867095 24.45704065 18.63256836 24.49731445 C6.26587196 24.65394699 6.26587196 24.65394699 -6 26 C-6.33 26.66 -6.66 27.32 -7 28 C-6.34 28 -5.68 28 -5 28 C-5.0406311 41.18479224 -8.44211658 54.56606406 -17 65 C-18.9196492 66.85125315 -20.85342003 68.40254514 -23 70 C-23.66 69.67 -24.32 69.34 -25 69 C-23.9171875 67.453125 -23.9171875 67.453125 -22.8125 65.875 C-19.13306688 60.00666899 -17.18268117 53.53304227 -15 47 C-14.67644531 46.13503906 -14.35289063 45.27007812 -14.01953125 44.37890625 C-12.1693994 39.36704673 -11.37575466 35.35067431 -12 30 C-13.79363911 27.1899654 -15.01880935 25.49059532 -18 24 C-17.67 23.01 -17.34 22.02 -17 21 C-4.625 20.505 -4.625 20.505 8 20 C8.66 16.7 9.32 13.4 10 10 C6.03803758 9.39709268 3.99556175 9.38855262 0.51953125 11.5234375 C-1.16825992 12.77459888 -2.83389552 14.05636674 -4.47265625 15.37109375 C-7.35451523 17.22848972 -9.6178853 17.6514802 -13 18 C-13 16.68 -13 15.36 -13 14 C-10.734375 12.21875 -10.734375 12.21875 -7.75 10.5 C-3.98490211 8.30867318 -0.95871551 6.2123197 2 3 C1.34 2.67 0.68 2.34 0 2 C0 1.34 0 0.68 0 0 Z " fill="#0D0D0D" transform="translate(106,123)"/>
<path d="M0 0 C4.39075018 0.35989756 6.38486502 1.6372727 9.8125 4.3125 C9.1525 4.9725 8.4925 5.6325 7.8125 6.3125 C6.4925 6.3125 5.1725 6.3125 3.8125 6.3125 C3.85375 7.34375 3.895 8.375 3.9375 9.4375 C3.81583028 13.20926125 3.29145609 15.86160245 1.8125 19.3125 C-0.83208379 20.63479189 -2.86511301 20.40927194 -5.8125 20.375 C-6.81539062 20.36597656 -7.81828125 20.35695312 -8.8515625 20.34765625 C-9.62242188 20.33605469 -10.39328125 20.32445312 -11.1875 20.3125 C-11.8475 18.9925 -12.5075 17.6725 -13.1875 16.3125 C-12.07375 16.209375 -10.96 16.10625 -9.8125 16 C-8.61625 15.773125 -7.42 15.54625 -6.1875 15.3125 C-3.61876321 11.92680493 -3.61876321 11.92680493 -3.1875 5.3125 C-8.1375 5.6425 -13.0875 5.9725 -18.1875 6.3125 C-17.8575 6.9725 -17.5275 7.6325 -17.1875 8.3125 C-17.10300372 10.0529417 -17.08026976 11.79659722 -17.08984375 13.5390625 C-17.09306641 14.5703125 -17.09628906 15.6015625 -17.09960938 16.6640625 C-17.10798828 17.74429688 -17.11636719 18.82453125 -17.125 19.9375 C-17.12951172 21.02546875 -17.13402344 22.1134375 -17.13867188 23.234375 C-17.15048224 25.92713789 -17.16695222 28.61979188 -17.1875 31.3125 C-10.73061496 34.0263905 -3.84526523 34.56847447 2.875 32.1875 C6.06495575 30.52841122 6.06495575 30.52841122 7.25 27.125 C7.5284375 25.7328125 7.5284375 25.7328125 7.8125 24.3125 C7.1525 24.3125 6.4925 24.3125 5.8125 24.3125 C6.3075 22.8275 6.3075 22.8275 6.8125 21.3125 C8.10858947 22.24387592 9.39921632 23.1828566 10.6875 24.125 C11.76644531 24.90810547 11.76644531 24.90810547 12.8671875 25.70703125 C15.41228235 27.8075011 16.6772898 29.53987029 17.25 32.8125 C16.8125 35.3125 16.8125 35.3125 14.5625 37.0625 C5.95564254 40.97470794 -6.33743034 40.41984614 -15.3515625 38.01953125 C-18.70705121 36.72731113 -21.63138833 34.86861167 -24.1875 32.3125 C-24.25031692 30.74732728 -24.24688131 29.17938636 -24.21484375 27.61328125 C-24.20259766 26.65099609 -24.19035156 25.68871094 -24.17773438 24.69726562 C-24.14291205 22.66854258 -24.10393146 20.63988613 -24.06054688 18.61132812 C-24.00192117 13.42812595 -24.08136486 9.1607405 -26.1875 4.3125 C-23.74903479 1.87403479 -23.00423975 2.03588397 -19.65234375 1.93359375 C-18.31526367 1.88235352 -18.31526367 1.88235352 -16.95117188 1.83007812 C-16.01853516 1.80365234 -15.08589844 1.77722656 -14.125 1.75 C-12.27981018 1.69031389 -10.43474103 1.62672537 -8.58984375 1.55859375 C-7.76991943 1.53466553 -6.94999512 1.5107373 -6.10522461 1.48608398 C-3.40830067 1.24197031 -3.07563996 0.30153333 0 0 Z " fill="#090909" transform="translate(129.1875,150.6875)"/>
<path d="M0 0 C1.4375 2.0625 1.4375 2.0625 2 4 C1.175 4.86625 0.35 5.7325 -0.5 6.625 C-2.40338916 8.94169652 -2.99398948 9.97114948 -3.625 13 C-3.19422039 16.24481562 -3.19422039 16.24481562 -0.5 19 C2 22 2 22 2.3125 25.375 C2.209375 26.24125 2.10625 27.1075 2 28 C3.258125 28.268125 4.51625 28.53625 5.8125 28.8125 C9.21348006 29.55252807 12.49149716 30.46481399 15.8125 31.5 C22.08116866 33.28087178 28.44108441 33.73603161 34.91918945 34.17773438 C39.93890364 34.57277957 43.58517923 35.34966714 48 38 C47.8125 39.8125 47.8125 39.8125 47 42 C41.57369528 46.05975371 35.70781543 46.18977495 29.11865234 45.46142578 C23.7783836 44.29835734 19.20825612 41.16567609 14.65625 38.26171875 C9.237236 34.81977685 4.46023581 32.57806173 -2.125 32.75 C-3.61386719 32.77320313 -3.61386719 32.77320313 -5.1328125 32.796875 C-7.99720607 32.92634424 -7.99720607 32.92634424 -10.72265625 33.62109375 C-11.47417969 33.74613281 -12.22570312 33.87117188 -13 34 C-15.3125 32.3125 -15.3125 32.3125 -17 30 C-17 28.68 -17 27.36 -17 26 C-16.39671875 26.08378906 -15.7934375 26.16757813 -15.171875 26.25390625 C-14.37265625 26.35574219 -13.5734375 26.45757812 -12.75 26.5625 C-11.96109375 26.66691406 -11.1721875 26.77132812 -10.359375 26.87890625 C-7.99467126 27.00027349 -6.2488963 26.69633257 -4 26 C-4.28276136 21.94708723 -4.63100143 20.36899857 -7.5625 17.4375 C-10 15 -10 15 -10.5 12.5 C-9.90313288 9.51566441 -8.71188509 7.49649909 -7 5 C-7.721875 5.350625 -8.44375 5.70125 -9.1875 6.0625 C-12.39777387 7.13259129 -13.84214433 7.16342051 -17 6 C-20 2.79310345 -20 2.79310345 -20 0 C-19.39671875 0.01160156 -18.7934375 0.02320313 -18.171875 0.03515625 C-17.37265625 0.04417969 -16.5734375 0.05320313 -15.75 0.0625 C-14.96109375 0.07410156 -14.1721875 0.08570313 -13.359375 0.09765625 C-1.61377961 -0.3885025 -1.61377961 -0.3885025 0 0 Z " fill="#0D0D0D" transform="translate(25,146)"/>
<path d="M0 0 C1.07765625 0.00902344 2.1553125 0.01804688 3.265625 0.02734375 C4.08546875 0.03894531 4.9053125 0.05054688 5.75 0.0625 C6.75005304 3.06265912 6.86575585 5.03673756 6.84765625 8.16796875 C6.84443359 9.15087891 6.84121094 10.13378906 6.83789062 11.14648438 C6.82951172 12.17064453 6.82113281 13.19480469 6.8125 14.25 C6.80798828 15.28576172 6.80347656 16.32152344 6.79882812 17.38867188 C6.78704026 19.9466392 6.76910482 22.50457686 6.75 25.0625 C-1.665 25.5575 -1.665 25.5575 -10.25 26.0625 C-10.25 24.0825 -10.25 22.1025 -10.25 20.0625 C-7.09493858 19.12630187 -4.28413498 18.9567877 -1 19 C-0.10796875 19.00902344 0.7840625 19.01804688 1.703125 19.02734375 C2.37859375 19.03894531 3.0540625 19.05054688 3.75 19.0625 C3.75 18.4025 3.75 17.7425 3.75 17.0625 C-3.18 16.5675 -3.18 16.5675 -10.25 16.0625 C-10.25 14.4125 -10.25 12.7625 -10.25 11.0625 C-5.96 10.0725 -1.67 9.0825 2.75 8.0625 C0.10541621 6.74020811 -1.92761301 6.96572806 -4.875 7 C-6.37933594 7.01353516 -6.37933594 7.01353516 -7.9140625 7.02734375 C-9.07035156 7.04474609 -9.07035156 7.04474609 -10.25 7.0625 C-10.25 5.0825 -10.25 3.1025 -10.25 1.0625 C-6.78777385 -0.00473961 -3.60960734 -0.03923486 0 0 Z " fill="#F1F1F1" transform="translate(201.25,145.9375)"/>
<path d="M0 0 C2.31 0.33 4.62 0.66 7 1 C7.71484375 3.2265625 7.71484375 3.2265625 8 6 C6.62890625 8.2109375 6.62890625 8.2109375 4.5625 10.375 C3.82902344 11.14714844 3.09554687 11.91929687 2.33984375 12.71484375 C-0.46322596 15.45239931 -3.33996558 18.06534948 -6.3359375 20.58984375 C-8.1025823 22.04770773 -8.1025823 22.04770773 -10 24 C-13.125 24.125 -13.125 24.125 -16 24 C-16 23.34 -16 22.68 -16 22 C-14.87474845 20.97350723 -13.69717355 20.00412304 -12.5 19.0625 C-7.4535742 14.77303807 -3.30842245 9.74574431 0 4 C0 2.68 0 1.36 0 0 Z " fill="#0D0D0D" transform="translate(172,162)"/>
<path d="M0 0 C1.24040039 0.01353516 1.24040039 0.01353516 2.50585938 0.02734375 C4.52486708 0.05068488 6.54372356 0.08654712 8.5625 0.125 C7.5725 0.455 6.5825 0.785 5.5625 1.125 C6.2225 3.105 6.8825 5.085 7.5625 7.125 C4.2625 7.125 0.9625 7.125 -2.4375 7.125 C-3.0975 5.805 -3.7575 4.485 -4.4375 3.125 C-6.99269921 2.31328772 -6.99269921 2.31328772 -9.4375 2.125 C-8.7775 4.105 -8.1175 6.085 -7.4375 8.125 C-9.22883978 8.17891993 -11.02063899 8.21775571 -12.8125 8.25 C-13.81023437 8.27320313 -14.80796875 8.29640625 -15.8359375 8.3203125 C-18.4375 8.125 -18.4375 8.125 -20.4375 6.125 C-23.02104218 5.95812552 -23.02104218 5.95812552 -25.4375 6.125 C-25.4375 5.465 -25.4375 4.805 -25.4375 4.125 C-24.86902344 4.00382813 -24.30054688 3.88265625 -23.71484375 3.7578125 C-22.94269531 3.59023437 -22.17054688 3.42265625 -21.375 3.25 C-20.62089844 3.08757812 -19.86679688 2.92515625 -19.08984375 2.7578125 C-16.31955368 2.13635213 -16.31955368 2.13635213 -13.21875 1.0625 C-8.70045 -0.05773967 -4.62727377 -0.0969453 0 0 Z " fill="#D5D5D5" transform="translate(272.4375,142.875)"/>
<path d="M0 0 C6.4 -0.49230769 6.4 -0.49230769 9.4375 2 C10.2109375 2.99 10.2109375 2.99 11 4 C9.61269114 8.16192659 6.68228955 9.79042409 3.25 12.25 C2.62867188 12.72179687 2.00734375 13.19359375 1.3671875 13.6796875 C-3.30126059 17.04806144 -3.30126059 17.04806144 -6.953125 16.796875 C-7.62859375 16.53390625 -8.3040625 16.2709375 -9 16 C-9 15.01 -9 14.02 -9 13 C-6.8125 10.95703125 -6.8125 10.95703125 -4 8.8125 C-3.071875 8.09707031 -2.14375 7.38164062 -1.1875 6.64453125 C-0.1046875 5.83048828 -0.1046875 5.83048828 1 5 C0.67 3.35 0.34 1.7 0 0 Z " fill="#0E0E0E" transform="translate(168,130)"/>
<path d="M0 0 C5.43806647 -0.36253776 5.43806647 -0.36253776 7.9375 1.25 C9 3 9 3 8.87109375 4.8203125 C7.63143108 7.92224868 5.63521929 9.44947662 3.125 11.625 C2.24070313 12.40101563 1.35640625 13.17703125 0.4453125 13.9765625 C-3.28000159 17.05917064 -5.17955498 18.2605646 -10 18 C-8.10706047 13.60638773 -4.98474217 10.69791236 -1.6796875 7.31640625 C0.27686708 4.61818099 0.35617328 3.25726208 0 0 Z " fill="#0A0A0A" transform="translate(169,147)"/>
<path d="M0 0 C0.02689216 1.47906892 0.04634621 2.95827483 0.0625 4.4375 C0.07410156 5.26121094 0.08570313 6.08492187 0.09765625 6.93359375 C0 9 0 9 -1 10 C-3.18639453 10.07258946 -5.37500389 10.08373783 -7.5625 10.0625 C-9.35880859 10.04896484 -9.35880859 10.04896484 -11.19140625 10.03515625 C-12.11824219 10.02355469 -13.04507813 10.01195312 -14 10 C-4.57142857 0 -4.57142857 0 0 0 Z " fill="#EDEDED" transform="translate(266,172)"/>
<path d="M0 0 C-0.99 0.33 -1.98 0.66 -3 1 C-2.34 2.98 -1.68 4.96 -1 7 C-4.3 7 -7.6 7 -11 7 C-11.99 5.02 -12.98 3.04 -14 1 C-9.32798795 -0.20568053 -4.78503708 -0.09382426 0 0 Z " fill="#EFEFEF" transform="translate(281,143)"/>
<path d="M0 0 C2.79794127 0.01798163 5.56201769 0.11890813 8.3515625 0.33203125 C9.0115625 1.65203125 9.6715625 2.97203125 10.3515625 4.33203125 C6.67768755 5.18501501 3.3068232 5.43992596 -0.4609375 5.39453125 C-1.92466797 5.38099609 -1.92466797 5.38099609 -3.41796875 5.3671875 C-4.52205078 5.34978516 -4.52205078 5.34978516 -5.6484375 5.33203125 C-4.52887184 1.88721383 -3.69126529 0.46276925 0 0 Z " fill="#F4F4F4" transform="translate(265.6484375,134.66796875)"/>
<path d="M0 0 C5.75 1.75 5.75 1.75 8 4 C8.125 7.125 8.125 7.125 8 10 C3.25 9.25 3.25 9.25 1 7 C0.59952556 4.67724823 0.2602896 2.34260643 0 0 Z " fill="#0A0A0A" transform="translate(10,130)"/>
<path d="M0 0 C4.67248931 2.82522609 7.65996398 5.67760044 11 10 C7.53122824 10 5.17745463 9.38150201 2 8 C1.125 5.875 1.125 5.875 1 4 C0.34 4 -0.32 4 -1 4 C-0.67 2.68 -0.34 1.36 0 0 Z " fill="#DCDCDC" transform="translate(45,145)"/>
<path d="M0 0 C3.3 0 6.6 0 10 0 C10 1.32 10 2.64 10 4 C5.545 4.495 5.545 4.495 1 5 C0.67 3.35 0.34 1.7 0 0 Z " fill="#E8E8E8" transform="translate(255,155)"/>
<path d="M0 0 C0.78375 0.04125 1.5675 0.0825 2.375 0.125 C2.705 0.785 3.035 1.445 3.375 2.125 C1.9375 4.75 1.9375 4.75 0.375 7.125 C-1.275 6.795 -2.925 6.465 -4.625 6.125 C-4.625 1.71963177 -4.59063093 0.21860147 0 0 Z " fill="#E4E4E4" transform="translate(44.625,130.875)"/>
<path d="M0 0 C4.29 0 8.58 0 13 0 C12.67 0.99 12.34 1.98 12 3 C8.37 3 4.74 3 1 3 C0.67 2.01 0.34 1.02 0 0 Z " fill="#D8D8D8" transform="translate(270,162)"/>
<path d="M0 0 C2.97 0 5.94 0 9 0 C9 1.32 9 2.64 9 4 C6.03 4 3.06 4 0 4 C0 2.68 0 1.36 0 0 Z " fill="#F2F2F2" transform="translate(270,154)"/>
<path d="M0 0 C-1.875 3.875 -1.875 3.875 -3 5 C-4.66617115 5.04063832 -6.33388095 5.042721 -8 5 C-7.625 3.0625 -7.625 3.0625 -7 1 C-4.53721199 -0.231394 -2.7204945 -0.07159196 0 0 Z " fill="#E4E4E4" transform="translate(256,136)"/>
<path d="M0 0 C0 0.99 0 1.98 0 3 C-2.97 3 -5.94 3 -9 3 C-9.33 2.34 -9.66 1.68 -10 1 C-6.61981469 -0.04005702 -3.5219721 -0.08004482 0 0 Z " fill="#D2D2D2" transform="translate(265,163)"/>
<path d="M0 0 C0.66 0 1.32 0 2 0 C2 1.32 2 2.64 2 4 C0.02 4.33 -1.96 4.66 -4 5 C-3.34 4.01 -2.68 3.02 -2 2 C-1.34 2 -0.68 2 0 2 C0 1.34 0 0.68 0 0 Z " fill="#DDDDDD" transform="translate(40,150)"/>
</svg>
